<svg width="25" height="21" viewBox="0 0 25 21" xmlns="http://www.w3.org/2000/svg" xmlns:sketch="http://www.bohemiancoding.com/sketch/ns"><title>TabIconReferrals</title><desc>Created with Sketch.</desc><path d="M19.458 9.732c-3.033 0-5.5 2.528-5.5 5.634 0 3.106 2.467 5.634 5.5 5.634 3.032 0 5.5-2.528 5.5-5.634 0-3.106-2.468-5.634-5.5-5.634zm0 10.244c-2.481 0-4.5-2.068-4.5-4.61 0-2.542 2.019-4.61 4.5-4.61s4.5 2.068 4.5 4.61c0 2.542-2.019 4.61-4.5 4.61zm5-19.976h-23c-.276 0-.5.229-.5.512v16.39c0 .283.224.512.5.512h4c.276 0 .5-.229.5-.512v-.768c0-.706.561-1.28 1.25-1.28s1.25.575 1.25 1.28v.768c0 .283.224.512.5.512h3.5v-1.024h-3v-.256c0-1.271-1.009-2.305-2.25-2.305-1.24 0-2.25 1.034-2.25 2.305v.256h-3v-15.366h22v8.195h1v-8.707c0-.283-.224-.512-.5-.512zm-20.5 10.756v.512h8v-.512c0-1.271-.623-2.702-2.249-3.299.462-.465.749-1.11.749-1.823 0-1.412-1.122-2.561-2.5-2.561s-2.5 1.149-2.5 2.561c0 .713.287 1.358.749 1.823-1.627.596-2.249 2.028-2.249 3.299zm2.5-5.122c0-.847.673-1.537 1.5-1.537s1.5.689 1.5 1.537c0 .847-.673 1.537-1.5 1.537s-1.5-.689-1.5-1.537zm1.5 2.561c2.213 0 2.804 1.239 2.953 2.049h-5.905c.149-.81.739-2.049 2.952-2.049zm6 0h2v1.024h-2v-1.024zm0-2.049h8v1.024h-8v-1.024zm0-2.049h4v1.024h-4v-1.024zm5.5 7.603l-2.535 2.597c-.195.2-.195.524 0 .724.195.2.512.2.707 0l1.314-1.345v4.63c0 .283.224.512.5.512s.5-.229.5-.512v-4.661l1.343 1.376c.098.1.226.15.354.15.128 0 .256-.05.354-.15.195-.2.195-.524 0-.724l-2.535-2.597z" fill="#999" sketch:type="MSShapeGroup"/></svg>