<svg width="25" height="23" viewBox="0 0 25 23" xmlns="http://www.w3.org/2000/svg" xmlns:sketch="http://www.bohemiancoding.com/sketch/ns"><title>TabIconMessagesSelected</title><desc>Created with Sketch.</desc><path d="M9.271 11l-4.422 3.44c-.09.069-.198.105-.307.105-.075 0-.15-.016-.22-.05-.171-.084-.28-.258-.28-.449v-3.045c-2.209 0-4 1.795-4 4 0 2.209 1.791 4 3.994 4h9.816l4.357 3.874c.093.083.212.126.332.126l.205-.044c.179-.081.295-.259.295-.456v-3.5h1c2.209 0 4-1.795 4-4 0-2.209-1.782-4-3.997-4h-10.774zm10.27-2c2.486 0 4.501-2.02 4.501-4.5 0-2.485-2.005-4.5-4.5-4.5h-15c-2.485 0-4.5 2.02-4.5 4.5 0 2.485 2.017 4.5 4.508 4.5h.951v3l4-3h10.04z" fill="#5693F9" sketch:type="MSShapeGroup"/></svg>