<svg width="25" height="22" viewBox="0 0 25 22" xmlns="http://www.w3.org/2000/svg" xmlns:sketch="http://www.bohemiancoding.com/sketch/ns"><title>TabIconScheduleSelected</title><desc>Created with Sketch.</desc><path d="M.542 22h23c.276 0 .5-.196.5-.438v-13.563h-24v13.563c0 .241.224.438.5.438zm19.5-20v-1.5c0-.276-.224-.5-.5-.5h-2c-.276 0-.5.224-.5.5v1.5h-10v-1.5c0-.276-.224-.5-.5-.5h-2c-.276 0-.5.224-.5.5v1.5h-3.5c-.276 0-.5.224-.5.5v4.5h24v-4.5c0-.276-.224-.5-.5-.5h-3.5zm-15-1h1v3h-1v-3zm13 0h1v3h-1v-3z" fill="#5693F9" sketch:type="MSShapeGroup"/></svg>