<svg width="23" height="5" viewBox="0 0 23 5" xmlns="http://www.w3.org/2000/svg" xmlns:sketch="http://www.bohemiancoding.com/sketch/ns"><title>TabIconMore</title><desc>Created with Sketch.</desc><path d="M5 2.5c0-1.381-1.119-2.5-2.5-2.5s-2.5 1.119-2.5 2.5 1.119 2.5 2.5 2.5 2.5-1.119 2.5-2.5zm-4 0c0-.828.672-1.5 1.5-1.5s1.5.672 1.5 1.5-.672 1.5-1.5 1.5-1.5-.672-1.5-1.5zm13 0c0-1.381-1.119-2.5-2.5-2.5s-2.5 1.119-2.5 2.5 1.119 2.5 2.5 2.5 2.5-1.119 2.5-2.5zm-4 0c0-.828.672-1.5 1.5-1.5s1.5.672 1.5 1.5-.672 1.5-1.5 1.5-1.5-.672-1.5-1.5zm13 0c0-1.381-1.119-2.5-2.5-2.5s-2.5 1.119-2.5 2.5 1.119 2.5 2.5 2.5 2.5-1.119 2.5-2.5zm-4 0c0-.828.672-1.5 1.5-1.5s1.5.672 1.5 1.5-.672 1.5-1.5 1.5-1.5-.672-1.5-1.5z" fill="#999" sketch:type="MSShapeGroup"/></svg>