<svg width="25" height="24" viewBox="0 0 25 24" xmlns="http://www.w3.org/2000/svg" xmlns:sketch="http://www.bohemiancoding.com/sketch/ns"><title>TabIconConsults</title><desc>Created with Sketch.</desc><g sketch:type="MSLayerGroup" stroke="#999" stroke-linejoin="round" fill="none"><path d="M14.917 9.5h2v4l3.841-4h3.659v-9h-15v4" sketch:type="MSShapeGroup"/><path d="M8.676 23.5h7.74v-2.5c0-.5-3-2-5.5-3v-2s.92-.35.92-2.5c.696 0 .961-2-.008-2 0-.211.746-1.308.449-2.5-.5-2-5.431-2-5.931 0-2.105-.43-.43 2.212-.43 2.5-1 0-1 2 0 2 0 2.15 1 2.5 1 2.5v2c-2.5 1-5.5 2.5-5.5 3v2.5h7.26z" sketch:type="MSShapeGroup"/></g></svg>