<svg width="24" height="21" viewBox="0 0 24 21" xmlns="http://www.w3.org/2000/svg" xmlns:sketch="http://www.bohemiancoding.com/sketch/ns"><title>TabIconReferralsSelected</title><desc>Created with Sketch.</desc><path d="M18.5 9.732c-3.033 0-5.5 2.528-5.5 5.634 0 3.106 2.467 5.634 5.5 5.634 3.032 0 5.5-2.528 5.5-5.634 0-3.106-2.468-5.634-5.5-5.634zm2.535 5.158c-.098.1-.226.15-.354.15-.128 0-.256-.05-.354-.15l-1.343-1.376v4.661c0 .283-.224.512-.5.512s-.5-.229-.5-.512v-4.631l-1.313 1.346c-.195.2-.512.2-.707 0-.195-.2-.195-.524 0-.724l2.536-2.597 2.535 2.597c.195.2.195.524 0 .724zm2.465-14.89h-23c-.276 0-.5.229-.5.512v16.39c0 .283.224.512.5.512h4c.276 0 .5-.229.5-.512v-.768c0-.706.561-1.28 1.25-1.28s1.25.575 1.25 1.28v.768c0 .283.224.512.5.512h4.316c-.204-.646-.316-1.333-.316-2.049 0-3.678 2.909-6.659 6.5-6.659 2.32 0 4.349 1.249 5.5 3.121v-11.316c0-.283-.224-.512-.5-.512zm-12.5 11.268h-8v-.512c0-1.271.623-2.702 2.249-3.299-.462-.465-.749-1.11-.749-1.823 0-1.412 1.122-2.561 2.5-2.561 1.379 0 2.5 1.149 2.5 2.561 0 .713-.287 1.358-.749 1.823 1.626.596 2.249 2.028 2.249 3.299v.512zm2-7.171h4v1.024h-4v-1.024zm0 4.098h2v1.024h-2v-1.024zm0-2.049h8v1.024h-8v-1.024z" fill="#5693F9" sketch:type="MSShapeGroup"/></svg>