<svg width="24" height="24" viewBox="0 0 24 24" xmlns="http://www.w3.org/2000/svg" xmlns:sketch="http://www.bohemiancoding.com/sketch/ns"><title>TabIconDashboard</title><desc>Created with Sketch.</desc><path d="M12 13c-.552 0-1-.448-1-1s.448-1 1-1 1 .448 1 1-.448 1-1 1zm0-3c-1.104 0-2 .896-2 2s.896 2 2 2 2-.896 2-2-.896-2-2-2zm6.364-3.656l-.707-.707-4.95 4.949.707.707 4.95-4.949zm-4.95 4.949l4.95-4.949c.471-.471-.236-1.179-.707-.707l-4.95 4.949c-.471.471.236 1.179.707.707zm-8.542-1.717l.383-.924-1.844-.765-.383.924 1.844.765zm-1.844-.765l1.844.765c.616.255.999-.668.383-.924l-1.844-.765c-.616-.255-.999.668-.383.924zm3.304-1.772l.708-.706-1.41-1.413-.708.706 1.41 1.413zm-1.41-1.413l1.41 1.413c.471.472 1.179-.235.708-.706l-1.41-1.413c-.471-.472-1.179.235-.708.706zm3.732-.373l.924-.382-.763-1.844-.924.382.763 1.844zm-.763-1.844l.763 1.844c.255.616 1.179.234.924-.382l-.763-1.844c-.255-.616-1.179-.234-.924.382zm3.59 1.083h1v-1.996h-1v1.996zm0-1.996v1.996c0 .667 1 .667 1 0v-1.996c0-.667-1-.667-1 0zm2.903 2.375l.924.383.764-1.844-.924-.383-.764 1.844zm.764-1.844l-.764 1.844c-.255.616.669.999.924.383l.764-1.844c.255-.616-.669-.999-.924-.383zm3.558 5.625l.382.924 1.845-.763-.382-.924-1.845.763zm1.845-.763l-1.845.763c-.616.255-.234 1.179.382.924l1.845-.763c.616-.255.234-1.179-.382-.924zm-1.083 4.089v1l1.996.001.001-1-1.996-.001zm1.996.001l-1.996-.001c-.667 0-.667 1 0 1l1.996.001c.667 0 .667-1 .001-1zm-16.97.999v-1h-1.996v1h1.996zm-1.996 0h1.996c.667 0 .667-1 0-1h-1.996c-.667 0-.667 1 0 1zm9.504 10.022c-6.075 0-11-4.925-11-11s4.925-11 11-11 11 4.925 11 11-4.925 11-11 11zm0-23c-6.628 0-12 5.372-12 12s5.372 12 12 12c6.627 0 12-5.373 12-12s-5.373-12-12-12z" fill="#999" sketch:type="MSShapeGroup"/></svg>