<svg width="18" height="24" viewBox="0 0 18 24" xmlns="http://www.w3.org/2000/svg" xmlns:sketch="http://www.bohemiancoding.com/sketch/ns"><title>TabIconFiles</title><desc>Created with Sketch.</desc><path d="M3.5 20.001l.5.5v-20l-.5.5h8l-.354-.146 6 6-.146-.354v14l.5-.5h-14zm14.5.5v-14c0-.133-.053-.26-.146-.354l-6-6c-.094-.094-.221-.146-.354-.146h-8c-.276 0-.5.224-.5.5v20c0 .276.224.5.5.5h14c.276 0 .5-.224.5-.5zm-7-14c0 .276.224.5.5.5h6c.445 0 .669-.539.354-.854l-6-6c-.315-.315-.854-.092-.854.354v6zm.146-5.646l6 6 .354-.854h-6l.5.5v-6l-.854.354zm2.854 22.646l.5-.5h-14l.5.5v-20l-.5.5h3v-1h-3c-.276 0-.5.224-.5.5v20c0 .276.224.5.5.5h14c.276 0 .5-.224.5-.5v-3h-1v3z" fill="#999" sketch:type="MSShapeGroup"/></svg>