<svg width="24" height="22" viewBox="0 0 24 22" xmlns="http://www.w3.org/2000/svg" xmlns:sketch="http://www.bohemiancoding.com/sketch/ns"><title>TabIconPeopleSelected</title><desc>Created with Sketch.</desc><path d="M13.406 12.709l-1.406-.511v-1.87c.486-.326 1.381-1.162 1.489-2.938.367-.231.597-.729.597-1.366 0-.56-.178-1.013-.471-1.271.243-.638.645-1.754.369-2.864-.332-1.34-2.22-1.815-3.736-1.815-1.342 0-2.976.373-3.563 1.389-.7-.041-1.088.261-1.277.512-.519.693-.277 1.78.002 2.755-.117.095-.216.22-.296.371-.131.252-.204.58-.204.922 0 .637.231 1.135.598 1.366.109 1.776 1.003 2.612 1.489 2.938v1.871c-.423.158-.856.314-1.287.468-2.578.926-4.803 1.726-5.214 2.97-.493 1.493-.499 4.796-.499 4.936 0 .277.224.502.5.502h18c.276 0 .5-.225.5-.502 0-.14-.006-3.443-.5-4.936-.412-1.246-2.479-1.988-5.094-2.928zm10.095 2.928c-.388-1.173-2.279-2.321-6.501-3.939v-.869c.486-.326 1.381-1.162 1.489-2.938.367-.231.597-.729.597-1.366 0-.566-.182-1.022-.48-1.279.241-.687.657-1.916.378-3.04-.179-.721-.959-1.498-1.855-1.846-.843-.327-1.697-.246-2.407.229-.229.154-.292.465-.139.696.153.23.463.292.694.139.553-.37 1.116-.274 1.491-.128.694.269 1.169.842 1.246 1.152.213.857-.165 1.933-.368 2.511-.098.28-.147.42-.147.563 0 .277.181.488.457.488.034.028.129.202.129.515s-.095.487-.087.502c-.276 0-.5.225-.5.502 0 1.993-1.148 2.527-1.191 2.547-.187.077-.309.26-.309.464v1.505c0 .209.129.396.323.47 1.439.544 5.819 2.2 6.228 3.439.337 1.02.421 3.148.441 4.118h-1.493c-.276 0-.5.225-.5.502s.224.502.5.502h2c.276 0 .5-.225.5-.502 0-.14-.006-3.443-.499-4.936z" fill="#5693F9" sketch:type="MSShapeGroup"/></svg>