<svg width="24" height="20" viewBox="0 0 24 20" xmlns="http://www.w3.org/2000/svg" xmlns:sketch="http://www.bohemiancoding.com/sketch/ns"><title>TabIconHealthDataSelected</title><desc>Created with Sketch.</desc><path d="M23.5 2h-13.793l-1.854-1.853c-.094-.094-.221-.147-.354-.147h-7c-.276 0-.5.224-.5.5v19c0 .276.224.5.5.5h23c.276 0 .5-.224.5-.5v-17c0-.276-.224-.5-.5-.5zm-11.5 14s-5.5-4-5.5-6.963c0-3.419 4.5-4.5 5.5-.342 1-4.158 5.5-3.077 5.5.342 0 2.963-5.5 6.963-5.5 6.963z" fill="#5693F9" sketch:type="MSShapeGroup"/></svg>