<svg width="25" height="25" viewBox="0 0 25 25" xmlns="http://www.w3.org/2000/svg" xmlns:sketch="http://www.bohemiancoding.com/sketch/ns"><title>TabIconConsultsSelected</title><desc>Created with Sketch.</desc><path d="M8.917.968v6.016l.395-.016c2.285 0 4.02 1.034 4.421 2.635.109.436.13.893.084 1.365h2.6v4.743l4.554-4.743h3.946v-10h-16zm7.951 20.796c-.429-.978-3.7-2.421-5.451-3.135v-1.396c.648-.548.875-1.576.912-2.419.433-.291.632-.934.632-1.46 0-.43-.146-.914-.486-1.175.313-.748.484-1.55.288-2.333-.286-1.142-1.64-1.879-3.451-1.879-1.189 0-2.74.401-3.288 1.455-.404-.019-.837.116-1.059.455l-.006.006-.005.01c-.395.628.006 1.595.309 2.275-.398.276-.596.811-.596 1.299 0 .569.264 1.163.762 1.394.047.864.301 1.859.988 2.385v1.383c-1.751.714-5.021 2.157-5.45 3.135l-.009.015-.041.188v3h16v-3l-.041-.188-.008-.015z" sketch:type="MSShapeGroup" fill="#5693F9"/></svg>