<svg width="24" height="21" viewBox="0 0 24 21" xmlns="http://www.w3.org/2000/svg" xmlns:sketch="http://www.bohemiancoding.com/sketch/ns"><title>WorkspaceIconDetails</title><desc>Created with Sketch.</desc><path d="M4.5 2.5c0 1.104-.896 2-2 2-1.106 0-2-.896-2-2s.894-2 2-2c1.104 0 2 .896 2 2zm4.069-.072h14.931m-19 8.072c0 1.104-.896 2-2 2-1.106 0-2-.896-2-2s.894-2 2-2c1.104 0 2 .896 2 2zm4.069-.072h14.931m-19 8.072c0 1.104-.896 2-2 2-1.106 0-2-.896-2-2s.894-2 2-2c1.104 0 2 .896 2 2zm4.069-.073h14.931" sketch:type="MSShapeGroup" stroke="#999" stroke-linejoin="round" fill="none"/></svg>