<svg width="24" height="24" viewBox="0 0 24 24" xmlns="http://www.w3.org/2000/svg" xmlns:sketch="http://www.bohemiancoding.com/sketch/ns"><title>WorkspaceIconMessages</title><desc>Created with Sketch.</desc><path d="M5.172 12.105l.807.395v-3.5c0-.276-.224-.5-.5-.5h-1c-1.931 0-3.5-1.57-3.5-3.5 0-1.936 1.565-3.5 3.506-3.5h14.987c1.935 0 3.506 1.57 3.506 3.5 0 1.932-1.568 3.5-3.496 3.5h-9.504c-.111 0-.219.037-.307.105l-4.5 3.5zm4.807-2.605h9.504c2.48 0 4.496-2.016 4.496-4.5 0-2.482-2.019-4.5-4.506-4.5h-14.987c-2.494 0-4.506 2.012-4.506 4.5 0 2.482 2.016 4.5 4.5 4.5h1l-.5-.5v3.5c0 .416.479.65.807.395l4.5-3.5-.307.105zm-10 6c0 2.206 1.795 4 3.994 4h10.006l-.332-.126 4.5 4c.322.287.832.058.832-.374v-4l-.5.5h1.5c2.208 0 4-1.794 4-4 0-2.209-1.792-4-4.001-4h-9.499v1h9.499c1.657 0 3.001 1.343 3.001 3 0 1.654-1.345 3-3 3h-1.5c-.276 0-.5.224-.5.5v4l.832-.374-4.5-4c-.092-.081-.21-.126-.332-.126h-10.006c-1.647 0-2.994-1.347-2.994-3 0-1.683.94-3 2-3v-1c-1.699 0-3 1.823-3 4z" fill="#999" sketch:type="MSShapeGroup"/></svg>