<svg width="24" height="22" viewBox="0 0 24 22" xmlns="http://www.w3.org/2000/svg" xmlns:sketch="http://www.bohemiancoding.com/sketch/ns"><title>WorkspaceIconDetailsSelected</title><desc>Created with Sketch.</desc><path d="M2.756.073c-1.378 0-2.5 1.121-2.5 2.5 0 1.378 1.122 2.5 2.5 2.5 1.379 0 2.5-1.122 2.5-2.5 0-1.379-1.121-2.5-2.5-2.5m6.07 3.927h14.216c.552 0 1-.447 1-1 0-.552-.448-1-1-1h-14.216c-.552 0-1 .448-1 1 0 .553.448 1 1 1m-6.07 4.073c-1.378 0-2.5 1.121-2.5 2.5 0 1.378 1.122 2.5 2.5 2.5 1.379 0 2.5-1.122 2.5-2.5 0-1.379-1.121-2.5-2.5-2.5m20.286 1.927h-14.216c-.552 0-1 .448-1 1 0 .553.448 1 1 1h14.216c.552 0 1-.447 1-1 0-.552-.448-1-1-1m-20.286 6.073c-1.378 0-2.5 1.121-2.5 2.5 0 1.378 1.122 2.5 2.5 2.5 1.379 0 2.5-1.122 2.5-2.5 0-1.379-1.121-2.5-2.5-2.5m20.286 1.927h-14.216c-.552 0-1 .448-1 1 0 .553.448 1 1 1h14.216c.552 0 1-.447 1-1 0-.552-.448-1-1-1" sketch:type="MSShapeGroup" fill="#5693F9"/></svg>