<svg width="24" height="24" viewBox="0 0 24 24" xmlns="http://www.w3.org/2000/svg" xmlns:sketch="http://www.bohemiancoding.com/sketch/ns"><title>MoreIconSettings</title><desc>Created with Sketch.</desc><path d="M23.502 13.999c.275 0 .498-.223.498-.498v-3c0-.275-.223-.498-.498-.498h-3.247l.484.382c-.34-1.412-.652-2.392-1.062-3.065l-.073.612 2.296-2.296c.195-.195.195-.51 0-.705l-2.829-2.828c-.195-.195-.51-.195-.705 0l-2.297 2.296.612-.073c-.674-.411-1.652-.722-3.064-1.062l.382.484v-3.247c0-.275-.223-.498-.498-.498h-3c-.275 0-.498.223-.498.498v3.247l.382-.484c-1.414.341-2.392.651-3.064 1.062l.612.073-2.297-2.296c-.195-.195-.51-.195-.705 0l-2.829 2.828c-.195.195-.195.51 0 .705l2.297 2.297-.073-.612c-.41.671-.717 1.636-1.064 3.064l.484-.381h-3.246c-.275 0-.498.223-.498.498v3c0 .275.223.498.498.498h3.246l-.484-.381c.346 1.427.653 2.392 1.064 3.064l.073-.612-2.297 2.297c-.195.195-.195.51 0 .705l2.829 2.829c.195.195.51.195.705 0l2.296-2.297-.612.073c.673.411 1.642.719 3.065 1.064l-.381-.484v3.247c0 .275.223.498.498.498h3c.275 0 .498-.223.498-.498v-3.247l-.381.484c1.422-.344 2.392-.652 3.063-1.063l-.612-.073 2.297 2.296c.195.195.51.195.705 0l2.829-2.829c.195-.195.195-.51 0-.705l-2.296-2.297.073.612c.41-.672.719-1.645 1.063-3.064l-.484.381h3.246zm-3.731-.616c-.318 1.313-.609 2.228-.945 2.779-.12.196-.09.449.073.612l2.296 2.297v-.705l-2.829 2.829h.705l-2.297-2.296c-.163-.163-.416-.193-.612-.073-.55.336-1.462.626-2.778.945-.224.054-.381.254-.381.484v3.247l.498-.498h-3l.498.498v-3.247c0-.23-.157-.43-.381-.484-1.316-.319-2.229-.609-2.78-.946-.196-.12-.45-.09-.612.073l-2.296 2.297h.705l-2.829-2.829v.705l2.297-2.297c.163-.163.193-.416.073-.612-.336-.55-.625-1.459-.946-2.779-.054-.223-.254-.381-.484-.381h-3.246l.498.498v-3l-.498.498h3.246c.23 0 .43-.157.484-.381.321-1.321.609-2.229.946-2.779.12-.196.09-.45-.073-.612l-2.297-2.297v.705l2.829-2.828h-.705l2.297 2.296c.163.163.416.193.612.073.551-.337 1.47-.629 2.778-.944.224-.054.382-.254.382-.484v-3.247l-.498.498h3l-.498-.498v3.247c0 .23.158.431.382.484 1.306.315 2.226.607 2.778.944.196.12.449.09.612-.073l2.297-2.296h-.705l2.829 2.828v-.705l-2.296 2.296c-.163.163-.193.416-.073.612.337.552.629 1.473.944 2.78.054.224.254.382.484.382h3.247l-.498-.498v3l.498-.498h-3.246c-.23 0-.43.157-.484.381zm-7.771 2.619c-2.211 0-4.002-1.792-4.002-4.002 0-2.211 1.792-4.002 4.002-4.002 2.211 0 4.002 1.792 4.002 4.002 0 2.211-1.792 4.002-4.002 4.002zm0-9.001c-2.761 0-4.999 2.238-4.999 4.999 0 2.761 2.238 4.999 4.999 4.999 2.761 0 4.999-2.238 4.999-4.999 0-2.761-2.238-4.999-4.999-4.999z" fill="#5693F9" sketch:type="MSShapeGroup"/></svg>