<svg width="18" height="24" viewBox="0 0 18 24" xmlns="http://www.w3.org/2000/svg" xmlns:sketch="http://www.bohemiancoding.com/sketch/ns"><title>TabIconFilesSelected</title><desc>Created with Sketch.</desc><path d="M2 21.5v-18.5h-1.5c-.276 0-.5.224-.5.5v20c0 .276.224.5.5.5h14c.276 0 .5-.224.5-.5v-1.5h-12.5c-.276 0-.5-.224-.5-.5zm15.854-15.354l-6-6c-.094-.094-.221-.146-.354-.146h-8c-.276 0-.5.224-.5.5v20.5h14.5c.276 0 .5-.224.5-.5v-14c0-.133-.052-.26-.146-.354zm-5.854-4.446l4.3 4.3h-4.3v-4.3z" fill="#5693F9" sketch:type="MSShapeGroup"/></svg>