<svg width="25" height="25" viewBox="0 0 25 25" xmlns="http://www.w3.org/2000/svg" xmlns:sketch="http://www.bohemiancoding.com/sketch/ns"><title>TabIconPeers</title><desc>Created with Sketch.</desc><path d="M24.042 12.021c0-6.639-5.382-12.021-12.021-12.021-6.639 0-12.021 5.382-12.021 12.021 0 3.208 1.264 6.217 3.476 8.453 2.244 2.268 5.292 3.568 8.545 3.568 3.258 0 6.311-1.305 8.556-3.58l-.712-.702c-2.059 2.087-4.856 3.282-7.844 3.282-2.983 0-5.776-1.191-7.834-3.271-2.029-2.051-3.186-4.808-3.186-7.75 0-6.087 4.934-11.021 11.021-11.021 6.087 0 11.021 4.934 11.021 11.021 0 2.936-1.154 5.689-3.176 7.738l.712.702c2.205-2.235 3.465-5.239 3.465-8.441zm-17.336 8.126l.436-.13 2.367-.693c.671-.211.828-.607.828-1.507 0-.676-.071-1.212-.299-1.694-.201-.426-.39-1.077-.431-1.555-.011-.129-.072-.248-.169-.333-.199-.174-.431-.705-.568-1.389-.113-.568-.106-.748-.024-.958l.067-.202c.1-.36.014-1.62-.151-2.525-.089-.49.125-1.378.622-2.014.533-.68 1.36-1.079 2.414-1.146l.89-.001c1.086.069 1.899.453 2.442 1.148.495.633.71 1.522.622 2.015-.164.9-.251 2.161-.15 2.531l.059.174c.09.235.097.414-.016.978-.137.686-.37 1.218-.567 1.387-.099.085-.161.206-.171.336-.04.476-.229 1.125-.43 1.554-.293.623-.45 1.13-.45 1.675 0 .899.162 1.296.836 1.509 2.062.61 4.21 1.289 5.145 1.657l.366-.93c-.973-.383-3.135-1.067-5.219-1.683-.128-.04-.128-.042-.128-.553 0-.362.12-.749.356-1.25.249-.531.471-1.293.521-1.895l-.498-.042.327.378c.404-.348.717-1.064.894-1.948.148-.737.134-1.104-.024-1.517l-.034-.096c-.048-.176.032-1.334.17-2.09.138-.772-.146-1.949-.818-2.809-.729-.933-1.809-1.444-3.199-1.531l-.953.001c-1.358.086-2.451.613-3.168 1.529-.674.863-.958 2.04-.818 2.809.138.757.217 1.914.168 2.092l-.03.087c-.16.409-.175.779-.027 1.523.177.881.488 1.594.89 1.945l.329-.376-.498.043c.052.603.274 1.367.523 1.895.148.315.203.729.203 1.269 0 .51-.002.513-.12.551-.196.058-1.834.534-2.359.691l-.44.132c-1.127.339-1.929.602-2.417.801l.377.926c.45-.183 1.231-.439 2.328-.769z" fill="#999" sketch:type="MSShapeGroup"/></svg>