<svg width="24" height="21" viewBox="0 0 24 21" xmlns="http://www.w3.org/2000/svg" xmlns:sketch="http://www.bohemiancoding.com/sketch/ns"><title>TabIconPeople</title><desc>Created with Sketch.</desc><path d="M18.5 20.929c.276 0 .5-.224.5-.5l-.015-.859c-.019-.642-.054-1.284-.109-1.886-.083-.917-.204-1.658-.375-2.175-.268-.808-1.158-1.393-2.83-2.074-.733-.299-3.693-1.361-3.995-1.475l.324.468v-2.5l-.309.462c.258-.106.606-.342.944-.75.543-.656.865-1.554.865-2.712l-.5.5c1.449 0 1.449-3 0-3v.5h.5c0 .045.18-.429.262-.667.245-.718.363-1.369.299-2.015-.015-.15-.04-.296-.075-.439-.6-2.411-6.871-2.411-7.47 0l.584-.37c-.805-.162-1.413.016-1.744.536-.25.392-.294.897-.208 1.512.036.26.095.528.174.827.036.133.18.639.18.615h.5v-.5c-1.45 0-1.45 3 0 3l-.5-.5c0 1.158.322 2.056.865 2.712.338.408.686.644.944.75l-.309-.462v2.5l.322-.467c-.382.145-.766.285-1.355.496l-1.004.361c-2.91 1.056-4.135 1.693-4.465 2.691-.172.517-.292 1.257-.375 2.175-.054.602-.089 1.244-.109 1.886-.012.385-.015.685-.015.859 0 .276.224.5.5.5h18zm-18-1l.5.5.015-.829c.019-.623.053-1.247.105-1.826.076-.846.187-1.523.328-1.95.181-.547 1.355-1.158 3.856-2.065l1.001-.36c.594-.213.983-.355 1.372-.503.194-.074.322-.26.322-.467v-2.5c0-.202-.122-.385-.309-.462-.117-.048-.332-.194-.556-.464-.394-.476-.635-1.148-.635-2.074 0-.276-.224-.5-.5-.5.005 0-.087-.177-.087-.5l.087-.5c.276 0 .5-.224.5-.5 0-.107-.019-.188-.081-.403l-.133-.47c-.07-.263-.12-.494-.15-.708-.056-.401-.03-.693.061-.836.081-.126.268-.181.704-.094.262.053.519-.11.584-.37.348-1.399 5.181-1.399 5.53 0l.051.296c.047.477-.047.998-.25 1.593.027-.08-.315.82-.315.99 0 .276.224.5.5.5-.006 0 .086.177.086.5l-.086.5c-.276 0-.5.224-.5.5 0 .925-.241 1.598-.635 2.074-.224.271-.439.416-.556.464-.187.077-.309.26-.309.462v2.5c0 .208.129.394.324.468.318.12 3.26 1.176 3.97 1.465 1.395.568 2.119 1.044 2.258 1.463.142.427.252 1.104.329 1.95.052.579.086 1.202.105 1.826l.015.828.5-.5h-18zm23 1c.276 0 .5-.224.5-.5l-.015-.859c-.019-.642-.054-1.284-.109-1.886-.083-.917-.204-1.658-.375-2.175-.432-1.303-2.612-2.461-6.824-4.048l.324.468v-1.5l-.309.462c.258-.106.606-.342.944-.75.543-.656.865-1.554.865-2.712l-.5.5c1.449 0 1.449-3 0-3v.5h.5c0 .038.186-.495.266-.748.19-.606.302-1.156.311-1.694.005-.303-.024-.591-.091-.863-.371-1.491-2.661-2.679-4.263-1.611l.555.832c.975-.65 2.521.153 2.737 1.021.045.182.066.384.062.604-.007.426-.101.889-.265 1.412.013-.042-.311.887-.311 1.047 0 .276.224.5.5.5-.006 0 .087.177.087.5l-.087.5c-.276 0-.5.224-.5.5 0 .925-.241 1.598-.635 2.074-.224.271-.439.416-.556.464-.187.077-.309.26-.309.462v1.5c0 .208.129.394.324.468 3.804 1.434 5.943 2.57 6.228 3.428.142.427.252 1.104.329 1.95.052.579.086 1.202.105 1.826l.015.828.5-.5h-2v1h2z" fill="#999" sketch:type="MSShapeGroup"/></svg>