<?xml version="1.0" encoding="UTF-8" standalone="no"?>
<svg width="24px" height="19px" viewBox="0 0 24 19" version="1.1" xmlns="http://www.w3.org/2000/svg" xmlns:xlink="http://www.w3.org/1999/xlink" xmlns:sketch="http://www.bohemiancoding.com/sketch/ns">
    <!-- Generator: Sketch 3.3.2 (12043) - http://www.bohemiancoding.com/sketch -->
    <title>TabIconPatients</title>
    <desc>Created with Sketch.</desc>
    <defs></defs>
    <g id="Page-1" stroke="none" stroke-width="1" fill="none" fill-rule="evenodd" sketch:type="MSPage">
        <path d="M4,18.5 C4,18.7761424 4.22385763,19 4.5,19 L8.5,19 C8.77614237,19 9,18.7761424 9,18.5 L9,17.75 C9,17.0634479 9.56333685,16.5 10.25,16.5 C10.9360521,16.5 11.5,17.0638368 11.5,17.75 L11.5,18.5 C11.5,18.7761424 11.7238576,19 12,19 L16,19 C16.2761424,19 16.5,18.7761424 16.5,18.5 L16.5,17.75 C16.5,17.0634479 17.0633368,16.5 17.75,16.5 C18.4360521,16.5 19,17.0638368 19,17.75 L19,18.5 C19,18.7761424 19.2238576,19 19.5,19 L23.5,19 C23.7761424,19 24,18.7761424 24,18.5 L24,4.5 C24,4.22385763 23.7761424,4 23.5,4 L4.5,4 C4.22385763,4 4,4.22385763 4,4.5 L4,18.5 Z M4.5,5 L23.5,5 L23,4.5 L23,18.5 L23.5,18 L19.5,18 L20,18.5 L20,17.75 C20,16.5115079 18.9882927,15.5 17.75,15.5 C16.511008,15.5 15.5,16.5112072 15.5,17.75 L15.5,18.5 L16,18 L12,18 L12.5,18.5 L12.5,17.75 C12.5,16.5115079 11.4882927,15.5 10.25,15.5 C9.01100798,15.5 8,16.5112072 8,17.75 L8,18.5 L8.5,18 L4.5,18 L5,18.5 L5,4.5 L4.5,5 Z M20,0.5 C20,0.223857625 19.7761424,0 19.5,0 L0.5,0 C0.223857625,0 0,0.223857625 0,0.5 L0,14.5 C0,14.7761424 0.223857625,15 0.5,15 L3,15 L3,14 L0.5,14 L1,14.5 L1,0.5 L0.5,1 L19.5,1 L19,0.5 L19,2.5 L20,2.5 L20,0.5 Z M10.5,10.5 C9.94764237,10.5 9.5,10.0523576 9.5,9.5 C9.5,8.94764237 9.94764237,8.5 10.5,8.5 C11.0520561,8.5 11.5,8.9478408 11.5,9.5 C11.5,10.0521592 11.0520561,10.5 10.5,10.5 Z M10.5,7.5 C9.39535763,7.5 8.5,8.39535763 8.5,9.5 C8.5,10.6046424 9.39535763,11.5 10.5,11.5 C11.6042893,11.5 12.5,10.6044955 12.5,9.5 C12.5,8.3955045 11.6042893,7.5 10.5,7.5 Z M7,13.5 C7,13.7761424 7.22385763,14 7.5,14 L13.5,14 C13.7761424,14 14,13.7761424 14,13.5 C14,11.7396493 12.7126269,10.5 10.5,10.5 C8.28702744,10.5 7,11.7394772 7,13.5 Z M13,13.5 L13.5,13 L7.5,13 L8,13.5 C8,12.3003603 8.83106463,11.5 10.5,11.5 C12.1686175,11.5 13,12.3005626 13,13.5 Z M21,13 L21,12 L16,12 L16,13 L21,13 Z M16,13 L21,13 C21.6666667,13 21.6666667,12 21,12 L16,12 C15.3333333,12 15.3333333,13 16,13 Z M21,11 L21,10 L16,10 L16,11 L21,11 Z M16,11 L21,11 C21.6666667,11 21.6666667,10 21,10 L16,10 C15.3333333,10 15.3333333,11 16,11 Z M18.5,9 L18.5,8 L16,8 L16,9 L18.5,9 Z M16,9 L18.5,9 C19.1666667,9 19.1666667,8 18.5,8 L16,8 C15.3333333,8 15.3333333,9 16,9 Z" id="TabIconPatients" fill="#999999" sketch:type="MSShapeGroup"></path>
    </g>
</svg>