<svg width="24" height="22" viewBox="0 0 24 22" xmlns="http://www.w3.org/2000/svg" xmlns:sketch="http://www.bohemiancoding.com/sketch/ns"><title>TabIconSchedule</title><desc>Created with Sketch.</desc><path d="M.5 2c-.276 0-.5.224-.5.5v19c0 .276.224.5.5.5h23c.276 0 .5-.224.5-.5v-19c0-.276-.224-.5-.5-.5h-4v1h4l-.5-.5v19l.5-.5h-23l.5.5v-19l-.5.5h4v-1h-4zm6-1l-.5-.5v4l.5-.5h-2l.5.5v-4l-.5.5h2zm-2.5-.5v4c0 .276.224.5.5.5h2c.276 0 .5-.224.5-.5v-4c0-.276-.224-.5-.5-.5h-2c-.276 0-.5.224-.5.5zm15.5.5l-.5-.5v4l.5-.5h-2l.5.5v-4l-.5.5h2zm-2.5-.5v4c0 .276.224.5.5.5h2c.276 0 .5-.224.5-.5v-4c0-.276-.224-.5-.5-.5h-2c-.276 0-.5.224-.5.5zm.5 2.5v-1h-11v1h11zm-11 0h11c.667 0 .667-1 0-1h-11c-.667 0-.667 1 0 1zm17 5v-1h-23v1h23zm-23 0h23c.667 0 .667-1 0-1h-23c-.667 0-.667 1 0 1z" fill="#999" sketch:type="MSShapeGroup"/></svg>