<svg width="25" height="20" viewBox="0 0 25 20" xmlns="http://www.w3.org/2000/svg" xmlns:sketch="http://www.bohemiancoding.com/sketch/ns"><title>TabIconHealthData</title><desc>Created with Sketch.</desc><path d="M24.458 20h-23c-.276 0-.5-.224-.5-.5v-19c0-.276.224-.5.5-.5h7c.133 0 .259.053.354.146l1.854 1.853h13.793c.276 0 .5.224.5.5v17c0 .276-.224.5-.5.5zm-22.5-1h22v-16h-13.5c-.133 0-.26-.053-.354-.147l-1.854-1.853h-6.293v18zm11-2.5c-.103 0-.207-.032-.294-.096-.233-.169-5.706-4.186-5.706-7.368 0-2.213 1.639-3.537 3.224-3.537.951 0 2.07.492 2.777 1.784.706-1.292 1.825-1.784 2.776-1.784 1.585 0 3.224 1.323 3.224 3.537 0 3.182-5.473 7.198-5.706 7.368-.087.064-.191.096-.294.096zm-2.777-10c-1.093 0-2.224.949-2.224 2.537 0 2.085 3.37 5.093 5 6.339 1.63-1.246 5-4.255 5-6.339 0-1.588-1.131-2.537-2.224-2.537-1.086 0-1.942.864-2.29 2.312-.054.225-.255.383-.486.383-.231 0-.432-.158-.486-.383-.348-1.447-1.204-2.312-2.29-2.312z" fill="#999" sketch:type="MSShapeGroup"/></svg>