<?xml version="1.0" encoding="UTF-8" standalone="no"?>
<svg width="24px" height="19px" viewBox="0 0 24 19" version="1.1" xmlns="http://www.w3.org/2000/svg" xmlns:xlink="http://www.w3.org/1999/xlink" xmlns:sketch="http://www.bohemiancoding.com/sketch/ns">
    <!-- Generator: Sketch 3.3.2 (12043) - http://www.bohemiancoding.com/sketch -->
    <title>TabIconPatientsSelected</title>
    <desc>Created with Sketch.</desc>
    <defs></defs>
    <g id="Page-1" stroke="none" stroke-width="1" fill="none" fill-rule="evenodd" sketch:type="MSPage">
        <path d="M20,0.5 C20,0.224 19.776,0 19.5,0 L0.5,0 C0.224,0 0,0.224 0,0.5 L0,14.5 C0,14.776 0.224,15 0.5,15 L3,15 L3,3.5 C3,3.224 3.224,3 3.5,3 L20,3 L20,0.5 Z M23.5,4 L4,4 L4,18.5 C4,18.776 4.224,19 4.5,19 L8.5,19 C8.776,19 9,18.776 9,18.5 L9,17.75 C9,17.061 9.561,16.5 10.25,16.5 C10.939,16.5 11.5,17.061 11.5,17.75 L11.5,18.5 C11.5,18.776 11.724,19 12,19 L16,19 C16.276,19 16.5,18.776 16.5,18.5 L16.5,17.75 C16.5,17.061 17.061,16.5 17.75,16.5 C18.439,16.5 19,17.061 19,17.75 L19,18.5 C19,18.776 19.224,19 19.5,19 L23.5,19 C23.776,19 24,18.776 24,18.5 L24,4.5 C24,4.224 23.776,4 23.5,4 Z M14,14 L7,14 L7,13.5 C7,12.441 7.5395,11.2495 8.9485,10.7465 C8.6725,10.4035 8.5,9.9735 8.5,9.5 C8.5,8.397 9.397,7.5 10.5,7.5 C11.603,7.5 12.5,8.397 12.5,9.5 C12.5,9.9735 12.3275,10.4035 12.0515,10.7465 C13.4605,11.2495 14,12.441 14,13.5 L14,14 L14,14 Z M16,8 L18.5,8 L18.5,9 L16,9 L16,8 Z M16,12 L21,12 L21,13 L16,13 L16,12 Z M16,10 L21,10 L21,11 L16,11 L16,10 Z" id="TabIconPatientsSelected" fill="#5693F9" sketch:type="MSShapeGroup"></path>
    </g>
</svg>