<svg width="25" height="24" viewBox="0 0 25 24" xmlns="http://www.w3.org/2000/svg" xmlns:sketch="http://www.bohemiancoding.com/sketch/ns"><title>TabIconSettingsSelected</title><desc>Created with Sketch.</desc><path d="M24.458 10h-2.855c-.2-.79-.454-1.667-.778-2.332l2.032-2.033c.093-.094.146-.221.146-.354 0-.133-.053-.26-.146-.354l-2.829-2.828c-.195-.195-.512-.195-.707 0l-2.033 2.032c-.665-.324-1.542-.578-2.331-.777v-2.856c0-.276-.224-.5-.5-.5h-3c-.276 0-.5.224-.5.5v2.856c-.79.199-1.667.454-2.331.777l-2.034-2.032c-.195-.195-.512-.195-.707 0l-2.828 2.828c-.195.196-.195.512 0 .707l2.033 2.033c-.322.663-.578 1.54-.779 2.332h-2.854c-.276 0-.5.223-.5.5v3c0 .277.224.5.5.5h2.854c.201.791.457 1.668.779 2.331l-2.034 2.033c-.093.094-.147.221-.147.354 0 .133.053.26.147.354l2.829 2.828c.188.188.52.188.707 0l2.032-2.034c.664.323 1.541.579 2.332.779v2.855c0 .276.224.5.5.5h3c.276 0 .5-.224.5-.5v-2.855c.79-.2 1.668-.456 2.331-.778l2.034 2.032c.195.195.512.195.707 0l2.828-2.828c.195-.195.195-.512 0-.707l-2.032-2.033c.322-.662.578-1.54.778-2.331h2.855c.276 0 .5-.223.5-.5v-3c0-.277-.224-.5-.5-.5zm-11.5 6c-2.206 0-4-1.794-4-4s1.795-4 4-4 4 1.794 4 4-1.795 4-4 4z" fill="#5693F9" sketch:type="MSShapeGroup"/></svg>