<svg width="24" height="24" viewBox="0 0 24 24" xmlns="http://www.w3.org/2000/svg" xmlns:sketch="http://www.bohemiancoding.com/sketch/ns"><title>TabIconDashboardSelected</title><desc>Created with Sketch.</desc><path d="M12 0c-6.628 0-12 5.372-12 12s5.372 12 12 12 12-5.372 12-12-5.372-12-12-12zm2.408 4.88l.766-1.848c.105-.255.397-.377.653-.271.256.106.377.398.271.654l-.765 1.848c-.08.192-.266.309-.463.309l-.191-.038c-.255-.106-.377-.398-.271-.653zm-2.908-2.38c0-.276.224-.5.5-.5s.5.224.5.5v2c0 .277-.224.5-.5.5s-.5-.223-.5-.5v-2zm-7 10.5h-2c-.276 0-.5-.224-.5-.5 0-.277.224-.5.5-.5h2c.276 0 .5.223.5.5 0 .276-.224.5-.5.5zm1.033-3.678c-.08.192-.266.309-.462.309l-.191-.038-1.848-.766c-.255-.106-.376-.399-.271-.653.106-.255.398-.378.654-.271l1.848.765c.255.106.376.399.271.654zm1.516-2.271c-.098.098-.226.146-.354.146-.128 0-.256-.048-.353-.146l-1.413-1.415c-.195-.196-.195-.513 0-.708.196-.194.512-.194.707 0l1.413 1.416c.195.196.195.512 0 .707zm2.271-1.518l-.191.038c-.196 0-.383-.117-.462-.309l-.764-1.848c-.106-.256.015-.548.27-.654.255-.107.548.016.653.271l.765 1.848c.105.255-.016.548-.271.653zm4.679 6.467c0 1.103-.897 2-2 2s-2-.897-2-2 .897-2 2-2c.37 0 .712.107 1.009.283l4.648-4.646c.195-.195.512-.195.707 0 .195.196.195.512 0 .708l-4.648 4.647c.175.297.284.639.284 1.009zm4.466-2.678c-.105-.255.015-.548.271-.654l1.848-.764c.255-.106.548.015.653.27.106.256-.016.548-.271.653l-1.848.765-.191.038c-.196 0-.383-.117-.462-.309zm3.034 3.679l-2-.001c-.276 0-.5-.224-.5-.5 0-.277.224-.5.5-.5l2 .001c.276 0 .5.224.5.5 0 .277-.224.5-.5.5z" fill="#5693F9" sketch:type="MSShapeGroup"/></svg>